<?xml version="1.0" encoding="UTF-8" standalone="no"?>
<!-- Created with Inkscape (http://www.inkscape.org/) -->

<svg
   width="1080"
   height="1080"
   viewBox="0 0 285.74999 285.75"
   version="1.1"
   id="svg1"
   xml:space="preserve"
   inkscape:version="1.4.3 (0d15f75042, 2025-12-25)"
   sodipodi:docname="logo.svg"
   inkscape:export-filename="paw_sentinel.png"
   inkscape:export-xdpi="96"
   inkscape:export-ydpi="96"
   xmlns:inkscape="http://www.inkscape.org/namespaces/inkscape"
   xmlns:sodipodi="http://sodipodi.sourceforge.net/DTD/sodipodi-0.dtd"
   xmlns="http://www.w3.org/2000/svg"
   xmlns:svg="http://www.w3.org/2000/svg"><sodipodi:namedview
     id="namedview1"
     pagecolor="#ffffff"
     bordercolor="#ffffff"
     borderopacity="1"
     inkscape:showpageshadow="0"
     inkscape:pageopacity="0"
     inkscape:pagecheckerboard="1"
     inkscape:deskcolor="#505050"
     inkscape:document-units="mm"
     inkscape:zoom="0.37772166"
     inkscape:cx="-193.264"
     inkscape:cy="292.54346"
     inkscape:window-width="1920"
     inkscape:window-height="1047"
     inkscape:window-x="0"
     inkscape:window-y="0"
     inkscape:window-maximized="1"
     inkscape:current-layer="layer1" /><defs
     id="defs1" /><g
     inkscape:label="Layer 1"
     inkscape:groupmode="layer"
     id="layer1"><rect
       style="fill:#ffffff;fill-opacity:1;stroke-width:0.115437;stroke-linecap:round;stroke-miterlimit:3.9;paint-order:markers fill stroke"
       id="rect1"
       width="285.75"
       height="285.75"
       x="-1.4210855e-14"
       y="-2.8421709e-14"
       ry="62.34198" /><path
       id="path3"
       style="fill:none;stroke:#6b9ac4;stroke-width:7.04531;stroke-dasharray:none;stroke-opacity:1"
       d="m 142.72443,61.75384 c 0,0 -49.99708,0.735353 -67.673945,56.15665 -17.676835,55.42131 26.749945,101.243 67.567065,125.63714 0.0615,0.0367 0.15253,0.0367 0.21394,0 40.81711,-24.39414 85.2439,-70.21583 67.56706,-125.63714 C 192.72169,62.489193 142.7246,61.75384 142.7246,61.75384 Z"
       sodipodi:nodetypes="csaascc" /><path
       id="path14"
       style="fill:none;stroke:#4a7b9d;stroke-width:11.0712;stroke-dasharray:none;stroke-opacity:1"
       d="m 142.72441,46.476554 c 0,0 -58.394721,0.858862 -79.040634,65.588896 -20.645903,64.73006 31.242921,118.24808 78.915794,146.73951 0.0717,0.0426 0.17831,0.0426 0.24988,0 47.67288,-28.49143 99.56172,-82.00945 78.91582,-146.73951 C 201.11936,47.335416 142.72463,46.476554 142.72463,46.476554 Z"
       sodipodi:nodetypes="csaascc" /><path
       style="fill:#4a7c59;fill-opacity:1;stroke-width:2.01294"
       d="m 112.20261,85.772527 c -0.66277,-1.995368 -0.74972,-2.988877 -0.34023,-3.887572 0.63857,-1.401515 5.70746,-4.360545 11.34766,-6.624339 l 3.93537,-1.579511 0.15505,-4.315252 c 0.13546,-3.772604 -0.0135,-4.630715 -1.19148,-6.824158 -3.02476,-5.635987 -3.62667,-10.368867 -2.35108,-18.48672 0.3222,-2.050482 0.55786,-4.849056 0.52369,-6.219057 -0.0465,-1.866564 0.2437,-2.867771 1.15801,-3.994445 0.67109,-0.826945 2.04844,-2.905282 3.06077,-4.61853 3.23606,-5.476579 7.40092,-8.018335 13.0971,-7.992943 3.13288,0.01396 4.22391,0.265264 6.21322,1.431082 3.02774,1.774367 5.34595,4.079422 7.78638,7.742179 1.04836,1.573455 2.33365,3.491276 2.85614,4.261825 0.5393,0.795341 0.84734,1.976603 0.71253,2.732482 -0.13063,0.732315 0.13509,2.769482 0.59061,4.527038 0.49036,1.89231 0.85137,5.69344 0.88525,9.32037 0.0558,5.984354 0.01,6.230558 -1.96674,10.735892 -1.76279,4.016222 -2.00328,5.046186 -1.86407,7.983547 0.13664,2.882417 0.3146,3.401749 1.22501,3.574104 1.67708,0.31746 11.29076,4.74768 13.55691,6.247341 1.127,0.745838 2.18344,1.869682 2.34759,2.497432 0.36663,1.402001 -0.66058,5.710586 -1.36148,5.710586 -0.28015,0 -2.10911,-0.948874 -4.06434,-2.108592 -6.64304,-3.94025 -13.95797,-6.552146 -21.57413,-7.703337 -4.2208,-0.637963 -5.20617,-0.611858 -9.58666,0.254007 -7.98721,1.578832 -17.04919,5.106072 -22.29419,8.677695 l -1.9666,1.339207 z"
       id="path13" /><path
       style="fill:#4a7c59;fill-opacity:1;stroke-width:2.01294"
       d="m 131.69441,118.83765 c -3.4912,-0.61152 -4.64091,-1.58311 -8.13789,-6.87711 -2.50494,-3.79218 -8.47133,-15.453362 -9.17744,-17.937051 -0.28271,-0.994518 0.19706,-1.4734 3.35619,-3.350254 8.21919,-4.882916 18.3457,-8.176713 25.12163,-8.171131 5.58706,0.0039 13.30125,2.173693 20.5048,5.765684 3.2222,1.606722 6.4458,3.378033 7.16356,3.936254 l 1.30504,1.015001 -2.05817,4.61903 c -4.27459,9.593217 -10.75398,19.480667 -13.52561,20.639867 -1.81347,0.75844 -20.69636,1.03512 -24.55211,0.35971 z"
       id="path12" /><path
       style="fill:#4a7c59;fill-opacity:1;stroke-width:2.01294"
       d="m 201.27488,139.45744 c -0.61416,-9.3498 -2.90534,-17.81141 -7.05967,-26.0723 -4.24812,-8.44744 -8.16787,-13.515665 -15.84368,-20.4859 l -2.51589,-2.284629 1.42514,-1.868461 c 1.65679,-2.172162 3.16631,-3.143188 3.6556,-2.351493 0.66657,1.078551 1.22867,0.464076 2.37192,-2.592962 3.03618,-8.118652 9.50018,-14.616492 18.04606,-18.140554 15.87519,-6.546383 39.95613,-4.314127 59.76577,5.540188 3.93205,1.956005 11.50824,6.58674 13.27172,8.112004 0.94153,0.81433 -12.54372,5.155339 -20.34419,6.548967 -5.33777,0.953621 -8.74507,1.136112 -23.43407,1.254976 -16.72829,0.135472 -17.32883,0.177141 -22.44535,1.558676 -5.79815,1.565692 -11.85613,4.336957 -14.81869,6.778936 l -1.92294,1.585084 2.92236,4.366008 c 7.97855,11.92008 12.16728,24.65209 12.47077,37.90607 0.10741,4.68659 -0.16842,5.11515 -3.30012,5.12849 l -1.91687,0.007 z"
       id="path11" /><path
       style="fill:#4a7c59;fill-opacity:1;stroke-width:2.01294"
       d="m 80.06948,144.06304 -1.272963,-0.24058 0.310038,-6.74375 c 0.580674,-12.62951 4.794717,-24.84303 12.384558,-35.89382 L 94.31957,97.066653 92.380451,95.468247 C 89.516406,93.107494 83.612496,90.361632 77.880592,88.724598 72.909798,87.304902 72.521714,87.277208 55.777995,87.147646 37.85665,87.008878 32.400371,86.499352 24.088732,84.187822 18.837268,82.72735 11.30523,79.996493 11.311338,79.555168 c 0.0091,-0.65434 8.653674,-6.065702 13.784952,-8.629108 9.141762,-4.566913 18.512488,-7.25802 29.46238,-8.461035 14.326804,-1.574026 26.30479,0.496753 35.298977,6.102584 5.822215,3.628835 10.184123,8.954087 12.531073,15.298664 1.16164,3.14022 1.4942,3.476674 2.47106,2.499816 0.39507,-0.395063 1.06474,-0.140125 2.24889,0.856329 3.06857,2.58203 3.06532,3.080527 -0.0386,5.93833 -13.916592,12.812882 -21.312176,27.908982 -22.591959,46.115392 -0.400819,5.702 -0.277148,5.56774 -4.408591,4.7869 z"
       id="path10" /><path
       style="fill:#4a7c59;fill-opacity:1;stroke-width:2.01294"
       d="m 182.46676,148.17304 c -2.08804,-0.22468 -4.47506,-0.73515 -5.30453,-1.13439 -2.01474,-0.96976 -6.86191,-8.19663 -10.99676,-16.39558 -5.03991,-9.99361 -4.81055,-11.88397 3.07434,-25.33993 1.54482,-2.63635 3.57409,-5.842415 4.50945,-7.124623 l 1.70063,-2.331258 3.98245,3.929043 c 4.51041,4.449918 9.9106,12.184848 12.65718,18.129438 3.68811,7.98248 5.90128,18.71297 5.52938,26.80924 l -0.17133,3.72816 -5.59223,0.0692 c -3.07573,0.038 -7.30062,-0.1146 -9.38865,-0.33929 z"
       id="path9" /><path
       style="fill:#4a7c59;fill-opacity:1;stroke-width:2.01294"
       d="m 88.6656,148.39734 c -0.922302,-0.42846 -0.862259,-7.663 0.117639,-14.16294 1.924983,-12.77014 8.392686,-25.39751 17.779781,-34.7127 l 3.65031,-3.62232 1.60447,2.038917 c 2.18972,2.782583 6.94643,11.199003 9.41431,16.657473 2.71144,5.99711 2.54713,7.75544 -1.46727,15.70286 -3.1396,6.21564 -7.30537,12.89712 -9.54248,15.30531 -0.72632,0.78187 -2.24872,1.68547 -3.38314,2.00804 -2.2573,0.64186 -17.101527,1.28333 -18.173508,0.78536 z"
       id="path8" /><path
       style="fill:#6b9ac4;fill-opacity:1;stroke-width:2.01294"
       d="m 131.18172,176.89066 c -1.375,-0.26977 -2.99654,-1.07651 -3.89712,-1.93886 -2.17986,-2.0873 -6.75597,-9.51538 -10.08529,-16.37082 -3.78345,-7.79061 -3.82808,-9.69937 -0.39294,-16.80277 2.91341,-6.02455 7.69593,-13.85964 10.16096,-16.64651 1.66915,-1.88707 2.04787,-2.04334 6.30289,-2.60087 5.58325,-0.73156 19.6891,-0.29715 22.61486,0.69646 2.50602,0.85106 4.80949,3.67707 9.04933,11.10213 7.54516,13.21356 7.89131,15.3383 3.85801,23.68091 -3.308,6.84232 -7.26794,13.37709 -9.80699,16.18353 -1.6622,1.83728 -2.51692,2.31882 -4.88363,2.75132 -3.45651,0.63167 -19.61897,0.59323 -22.92008,-0.0547 z"
       id="path7" /><path
       style="fill:#4a7c59;fill-opacity:1;stroke-width:2.01294"
       d="m 169.04567,194.13667 c -4.00251,-7.1289 -6.58935,-13.14368 -6.58935,-15.32123 0,-3.06873 4.15654,-11.72911 9.46485,-19.72044 5.12048,-7.70859 4.43085,-7.38248 16.14152,-7.63275 l 9.25579,-0.19788 -0.35736,2.58379 c -0.19666,1.4211 -1.07683,5.15997 -1.95614,8.30862 -2.65159,9.49471 -6.08162,16.72056 -11.9576,25.19041 -2.99773,4.32105 -9.42723,11.97768 -10.39726,12.38166 -0.20713,0.0862 -1.82915,-2.43024 -3.60445,-5.59224 z"
       id="path6" /><path
       style="fill:#4a7c59;fill-opacity:1;stroke-width:2.01294"
       d="m 108.96045,195.42617 c -7.84701,-9.09358 -13.943612,-19.5981 -17.185714,-29.6113 -1.735935,-5.36135 -3.573484,-13.75623 -3.112101,-14.21762 0.381282,-0.38126 13.939905,-0.32025 16.331865,0.0734 1.05182,0.17307 2.53573,0.55063 3.29759,0.83882 2.92897,1.10802 11.1638,14.64587 14.34698,23.58609 1.3883,3.89914 0.5951,6.2711 -6.02502,18.01729 -1.77476,3.14896 -3.36671,5.72473 -3.53772,5.724 -0.17094,-7.6e-4 -2.02316,-1.98563 -4.11588,-4.4108 z"
       id="path5" /><path
       style="fill:#4a7c59;fill-opacity:1;stroke-width:2.01294"
       d="m 141.52541,222.11025 c -5.1723,-2.89977 -16.88453,-11.41492 -21.57,-15.68199 -1.02523,-0.93372 -2.46324,-2.18922 -3.19556,-2.79 l -1.33149,-1.09238 2.90112,-5.61042 c 1.59562,-3.08574 4.23579,-7.58951 5.86704,-10.00842 4.36154,-6.46744 4.53413,-6.52869 18.39409,-6.52692 12.90773,0.002 14.27961,0.29563 16.95631,3.63407 2.15923,2.69303 6.52251,9.95738 8.94866,14.89844 l 1.77813,3.62136 -2.1245,1.83971 c -8.10451,7.01811 -16.83384,13.5343 -22.67615,16.92712 -2.79245,1.62166 -2.54976,1.57313 -3.94765,0.78943 z"
       id="path4" /><path
       style="fill:#4a7c59;fill-opacity:1;stroke-width:2.01294"
       d="m 136.99837,231.18684 c -11.27346,-7.17102 -23.7142,-17.15056 -24.6202,-19.74945 l -0.53904,-1.54634 -2.7985,4.17994 c -1.53919,2.299 -3.71177,4.98185 -4.82797,5.96186 -4.464902,3.92024 -9.680112,4.83096 -14.292452,2.4959 -1.872046,-0.94774 -3.05791,-1.20421 -4.607245,-0.99642 -6.732136,0.90297 -9.487646,-5.21783 -5.716573,-12.69825 2.211834,-4.3875 8.540769,-10.76052 13.063653,-13.1547 1.830784,-0.96913 3.328699,-1.83607 3.328699,-1.92658 0,-0.0907 -1.11419,-1.81403 -2.475981,-3.83005 -3.457487,-5.1186 -8.319843,-15.3608 -10.589626,-22.30629 -1.978663,-6.05465 -4.284398,-17.87127 -3.755898,-19.24852 0.219102,-0.57102 0.985464,-0.73857 2.835514,-0.61996 l 2.535245,0.16261 0.408454,3.72814 c 0.519604,4.74279 2.595771,13.40619 4.294068,17.91814 7.921257,21.04483 26.033112,41.22222 50.265512,55.99805 l 3.30652,2.01619 4.14976,-2.51573 c 16.15298,-9.79242 31.58508,-24.20219 40.40998,-37.73295 7.20919,-11.05351 12.14794,-24.27883 13.42477,-35.94998 0.36233,-3.312 0.44491,-3.46943 1.9077,-3.6366 0.84097,-0.096 2.12033,-0.0263 2.84309,0.15504 1.24863,0.31341 1.29629,0.46804 0.95704,3.10402 -1.84009,14.29711 -7.21763,28.31987 -15.90428,41.47294 l -0.93602,1.41727 3.35891,1.77817 c 4.55406,2.4108 10.87457,8.76844 13.0939,13.17081 3.67899,7.29775 0.99512,13.43811 -5.55113,12.70028 -1.73074,-0.19505 -2.913,0.0529 -4.79535,1.00587 -6.59697,3.3398 -13.08672,0.38434 -19.32376,-8.80013 l -2.27646,-3.35223 -0.9613,1.58071 c -0.94858,1.55984 -6.79049,6.6659 -13.0711,11.42465 -5.194,3.93543 -16.3329,11.06586 -17.24296,11.03782 -0.46056,-0.0135 -3.11416,-1.47407 -5.89697,-3.24422 z"
       id="path1" /></g></svg>
